<svg width="100" height="34" viewBox="0 0 117 34" fill="none" xmlns="http://www.w3.org/2000/svg">
<g filter="url(#filter0_d_2_339)">
<mask id="path-1-outside-1_2_339" maskUnits="userSpaceOnUse" x="4.00021" y="0" width="109" height="26" fill="black">
<rect fill="white" x="4.00021" width="109" height="26"/>
<path d="M5.00021 24.6163V1.76744H11.9944C17.0515 1.76744 19.5801 3.74419 19.5801 7.69767C19.5801 8.97674 19.2553 10.0814 18.6057 11.0116C17.9562 11.9419 17.0747 12.5233 15.9612 12.7558C17.2603 12.9419 18.2694 13.5116 18.9885 14.4651C19.7308 15.3953 20.1136 16.6163 20.1368 18.1279C20.1368 22.4535 17.3183 24.6163 11.6812 24.6163H5.00021ZM12.2031 21.4767C13.7342 21.4767 14.8245 21.1395 15.474 20.4651C16.1236 19.7907 16.4483 18.8953 16.4483 17.7791C16.4483 16.6395 16.0888 15.814 15.3696 15.3023C14.6737 14.7907 13.5602 14.5349 12.0292 14.5349H8.61908V21.4767H12.2031ZM16.0308 7.97674C16.0308 5.93023 14.7665 4.90698 12.2379 4.90698H8.61908V11.3953H11.9596C14.6737 11.3953 16.0308 10.2558 16.0308 7.97674Z"/>
<path d="M22.5378 16.3488C22.5378 13.5349 23.1641 11.407 24.4168 9.96512C25.6695 8.5 27.4093 7.76744 29.6363 7.76744C31.8633 7.76744 33.5799 8.43023 34.7862 9.75581C36.0157 11.0581 36.6537 12.9767 36.7001 15.5116L36.5609 18.093H26.4002C26.609 20.6047 27.8617 21.8605 30.1583 21.8605C31.7589 21.8605 33.4524 21.5698 35.2386 20.9884L35.9693 24.0233C35.227 24.2791 34.2643 24.5 33.0812 24.686C31.8981 24.8953 30.9238 25 30.1583 25C25.0779 25 22.5378 22.1163 22.5378 16.3488ZM29.7755 11.0116C28.6852 11.0116 27.8617 11.3372 27.3049 11.9884C26.7714 12.6163 26.4698 13.6744 26.4002 15.1628H32.8376C32.8376 12.3953 31.8169 11.0116 29.7755 11.0116Z"/>
<path d="M39.0314 23.8488L39.797 20.6744C42.0008 21.3721 43.7522 21.7209 45.0513 21.7209C46.3504 21.7209 47.2319 21.593 47.6958 21.3372C48.1598 21.1046 48.3918 20.686 48.3918 20.0814C48.3918 19.4767 48.183 19.0465 47.7654 18.7907C47.3479 18.5349 46.5591 18.2674 45.3992 17.9884C43.1027 17.4302 41.502 16.814 40.5973 16.1395C39.6926 15.4419 39.2402 14.314 39.2402 12.7558C39.2402 9.43023 41.3744 7.76744 45.6428 7.76744C47.4754 7.76744 49.598 8.06977 52.0106 8.67442L51.3495 11.9884C49.0529 11.3372 47.2783 11.0116 46.0256 11.0116C44.7729 11.0116 43.9262 11.1279 43.4854 11.3605C43.0679 11.5698 42.8591 11.9419 42.8591 12.4767C42.8591 13.0116 43.0679 13.407 43.4854 13.6628C43.9262 13.8953 45.0397 14.2558 46.8259 14.7442C48.6121 15.2326 49.9228 15.8023 50.7579 16.4535C51.5931 17.0814 52.0106 18.1628 52.0106 19.6977C52.0106 23.2093 49.8532 24.9651 45.5384 24.9651C43.5202 24.9651 41.3512 24.593 39.0314 23.8488Z"/>
<path d="M58.274 8.04651L58.3436 9.05814C60.2227 8.19767 61.6957 7.76744 62.7628 7.76744C64.6418 7.76744 66.0221 8.32558 66.9036 9.44186C67.8083 10.5349 68.2607 12.2558 68.2607 14.6047V24.6163H64.6766V14.7093C64.6766 13.593 64.4795 12.7209 64.0851 12.093C63.6907 11.4651 63.076 11.1512 62.2409 11.1512C61.4057 11.1512 60.1183 11.5581 58.3784 12.3721V24.6163H54.7944V8.04651H58.274Z"/>
<path d="M70.9748 24.6163V21.407H76.1596V11.2558H71.2532V8.04651H79.7436V21.407H84.65V24.6163H70.9748ZM77.7602 5.63953C77.0643 5.63953 76.5075 5.43023 76.09 5.01163C75.6956 4.56977 75.4984 4 75.4984 3.30233C75.4984 2.60465 75.7072 2.04651 76.1248 1.62791C76.5423 1.2093 77.0991 1 77.795 1C78.5141 1 79.0593 1.2093 79.4305 1.62791C79.8248 2.02326 80.022 2.5814 80.022 3.30233C80.022 4.02326 79.8248 4.59302 79.4305 5.01163C79.0361 5.43023 78.4793 5.63953 77.7602 5.63953Z"/>
<path d="M87.5381 24.6163V1.41861H91.1222V14.7093L93.4188 14.4651C94.7178 12.7907 95.8545 10.9767 96.8288 9.02326L97.316 8.04651H101.213C99.7518 11.1395 98.1279 13.7209 96.3417 15.7907C97.8263 17.907 99.3226 20.407 100.83 23.2907L101.526 24.6163H97.4552C96.3185 22.1512 95.0194 19.7907 93.5579 17.5349L91.1222 17.7791V24.6163H87.5381Z"/>
<path d="M106.955 24.6163V19.5581H112V24.6163H106.955Z"/>
</mask>
<path d="M5.00021 24.6163V1.76744H11.9944C17.0515 1.76744 19.5801 3.74419 19.5801 7.69767C19.5801 8.97674 19.2553 10.0814 18.6057 11.0116C17.9562 11.9419 17.0747 12.5233 15.9612 12.7558C17.2603 12.9419 18.2694 13.5116 18.9885 14.4651C19.7308 15.3953 20.1136 16.6163 20.1368 18.1279C20.1368 22.4535 17.3183 24.6163 11.6812 24.6163H5.00021ZM12.2031 21.4767C13.7342 21.4767 14.8245 21.1395 15.474 20.4651C16.1236 19.7907 16.4483 18.8953 16.4483 17.7791C16.4483 16.6395 16.0888 15.814 15.3696 15.3023C14.6737 14.7907 13.5602 14.5349 12.0292 14.5349H8.61908V21.4767H12.2031ZM16.0308 7.97674C16.0308 5.93023 14.7665 4.90698 12.2379 4.90698H8.61908V11.3953H11.9596C14.6737 11.3953 16.0308 10.2558 16.0308 7.97674Z" fill="#101010"/>
<path d="M22.5378 16.3488C22.5378 13.5349 23.1641 11.407 24.4168 9.96512C25.6695 8.5 27.4093 7.76744 29.6363 7.76744C31.8633 7.76744 33.5799 8.43023 34.7862 9.75581C36.0157 11.0581 36.6537 12.9767 36.7001 15.5116L36.5609 18.093H26.4002C26.609 20.6047 27.8617 21.8605 30.1583 21.8605C31.7589 21.8605 33.4524 21.5698 35.2386 20.9884L35.9693 24.0233C35.227 24.2791 34.2643 24.5 33.0812 24.686C31.8981 24.8953 30.9238 25 30.1583 25C25.0779 25 22.5378 22.1163 22.5378 16.3488ZM29.7755 11.0116C28.6852 11.0116 27.8617 11.3372 27.3049 11.9884C26.7714 12.6163 26.4698 13.6744 26.4002 15.1628H32.8376C32.8376 12.3953 31.8169 11.0116 29.7755 11.0116Z" fill="#101010"/>
<path d="M39.0314 23.8488L39.797 20.6744C42.0008 21.3721 43.7522 21.7209 45.0513 21.7209C46.3504 21.7209 47.2319 21.593 47.6958 21.3372C48.1598 21.1046 48.3918 20.686 48.3918 20.0814C48.3918 19.4767 48.183 19.0465 47.7654 18.7907C47.3479 18.5349 46.5591 18.2674 45.3992 17.9884C43.1027 17.4302 41.502 16.814 40.5973 16.1395C39.6926 15.4419 39.2402 14.314 39.2402 12.7558C39.2402 9.43023 41.3744 7.76744 45.6428 7.76744C47.4754 7.76744 49.598 8.06977 52.0106 8.67442L51.3495 11.9884C49.0529 11.3372 47.2783 11.0116 46.0256 11.0116C44.7729 11.0116 43.9262 11.1279 43.4854 11.3605C43.0679 11.5698 42.8591 11.9419 42.8591 12.4767C42.8591 13.0116 43.0679 13.407 43.4854 13.6628C43.9262 13.8953 45.0397 14.2558 46.8259 14.7442C48.6121 15.2326 49.9228 15.8023 50.7579 16.4535C51.5931 17.0814 52.0106 18.1628 52.0106 19.6977C52.0106 23.2093 49.8532 24.9651 45.5384 24.9651C43.5202 24.9651 41.3512 24.593 39.0314 23.8488Z" fill="#101010"/>
<path d="M58.274 8.04651L58.3436 9.05814C60.2227 8.19767 61.6957 7.76744 62.7628 7.76744C64.6418 7.76744 66.0221 8.32558 66.9036 9.44186C67.8083 10.5349 68.2607 12.2558 68.2607 14.6047V24.6163H64.6766V14.7093C64.6766 13.593 64.4795 12.7209 64.0851 12.093C63.6907 11.4651 63.076 11.1512 62.2409 11.1512C61.4057 11.1512 60.1183 11.5581 58.3784 12.3721V24.6163H54.7944V8.04651H58.274Z" fill="#101010"/>
<path d="M70.9748 24.6163V21.407H76.1596V11.2558H71.2532V8.04651H79.7436V21.407H84.65V24.6163H70.9748ZM77.7602 5.63953C77.0643 5.63953 76.5075 5.43023 76.09 5.01163C75.6956 4.56977 75.4984 4 75.4984 3.30233C75.4984 2.60465 75.7072 2.04651 76.1248 1.62791C76.5423 1.2093 77.0991 1 77.795 1C78.5141 1 79.0593 1.2093 79.4305 1.62791C79.8248 2.02326 80.022 2.5814 80.022 3.30233C80.022 4.02326 79.8248 4.59302 79.4305 5.01163C79.0361 5.43023 78.4793 5.63953 77.7602 5.63953Z" fill="#101010"/>
<path d="M87.5381 24.6163V1.41861H91.1222V14.7093L93.4188 14.4651C94.7178 12.7907 95.8545 10.9767 96.8288 9.02326L97.316 8.04651H101.213C99.7518 11.1395 98.1279 13.7209 96.3417 15.7907C97.8263 17.907 99.3226 20.407 100.83 23.2907L101.526 24.6163H97.4552C96.3185 22.1512 95.0194 19.7907 93.5579 17.5349L91.1222 17.7791V24.6163H87.5381Z" fill="#101010"/>
<path d="M106.955 24.6163V19.5581H112V24.6163H106.955Z" fill="#101010"/>
<path d="M5.00021 24.6163V1.76744H11.9944C17.0515 1.76744 19.5801 3.74419 19.5801 7.69767C19.5801 8.97674 19.2553 10.0814 18.6057 11.0116C17.9562 11.9419 17.0747 12.5233 15.9612 12.7558C17.2603 12.9419 18.2694 13.5116 18.9885 14.4651C19.7308 15.3953 20.1136 16.6163 20.1368 18.1279C20.1368 22.4535 17.3183 24.6163 11.6812 24.6163H5.00021ZM12.2031 21.4767C13.7342 21.4767 14.8245 21.1395 15.474 20.4651C16.1236 19.7907 16.4483 18.8953 16.4483 17.7791C16.4483 16.6395 16.0888 15.814 15.3696 15.3023C14.6737 14.7907 13.5602 14.5349 12.0292 14.5349H8.61908V21.4767H12.2031ZM16.0308 7.97674C16.0308 5.93023 14.7665 4.90698 12.2379 4.90698H8.61908V11.3953H11.9596C14.6737 11.3953 16.0308 10.2558 16.0308 7.97674Z" stroke="black" stroke-width="2" mask="url(#path-1-outside-1_2_339)"/>
<path d="M22.5378 16.3488C22.5378 13.5349 23.1641 11.407 24.4168 9.96512C25.6695 8.5 27.4093 7.76744 29.6363 7.76744C31.8633 7.76744 33.5799 8.43023 34.7862 9.75581C36.0157 11.0581 36.6537 12.9767 36.7001 15.5116L36.5609 18.093H26.4002C26.609 20.6047 27.8617 21.8605 30.1583 21.8605C31.7589 21.8605 33.4524 21.5698 35.2386 20.9884L35.9693 24.0233C35.227 24.2791 34.2643 24.5 33.0812 24.686C31.8981 24.8953 30.9238 25 30.1583 25C25.0779 25 22.5378 22.1163 22.5378 16.3488ZM29.7755 11.0116C28.6852 11.0116 27.8617 11.3372 27.3049 11.9884C26.7714 12.6163 26.4698 13.6744 26.4002 15.1628H32.8376C32.8376 12.3953 31.8169 11.0116 29.7755 11.0116Z" stroke="black" stroke-width="2" mask="url(#path-1-outside-1_2_339)"/>
<path d="M39.0314 23.8488L39.797 20.6744C42.0008 21.3721 43.7522 21.7209 45.0513 21.7209C46.3504 21.7209 47.2319 21.593 47.6958 21.3372C48.1598 21.1046 48.3918 20.686 48.3918 20.0814C48.3918 19.4767 48.183 19.0465 47.7654 18.7907C47.3479 18.5349 46.5591 18.2674 45.3992 17.9884C43.1027 17.4302 41.502 16.814 40.5973 16.1395C39.6926 15.4419 39.2402 14.314 39.2402 12.7558C39.2402 9.43023 41.3744 7.76744 45.6428 7.76744C47.4754 7.76744 49.598 8.06977 52.0106 8.67442L51.3495 11.9884C49.0529 11.3372 47.2783 11.0116 46.0256 11.0116C44.7729 11.0116 43.9262 11.1279 43.4854 11.3605C43.0679 11.5698 42.8591 11.9419 42.8591 12.4767C42.8591 13.0116 43.0679 13.407 43.4854 13.6628C43.9262 13.8953 45.0397 14.2558 46.8259 14.7442C48.6121 15.2326 49.9228 15.8023 50.7579 16.4535C51.5931 17.0814 52.0106 18.1628 52.0106 19.6977C52.0106 23.2093 49.8532 24.9651 45.5384 24.9651C43.5202 24.9651 41.3512 24.593 39.0314 23.8488Z" stroke="black" stroke-width="2" mask="url(#path-1-outside-1_2_339)"/>
<path d="M58.274 8.04651L58.3436 9.05814C60.2227 8.19767 61.6957 7.76744 62.7628 7.76744C64.6418 7.76744 66.0221 8.32558 66.9036 9.44186C67.8083 10.5349 68.2607 12.2558 68.2607 14.6047V24.6163H64.6766V14.7093C64.6766 13.593 64.4795 12.7209 64.0851 12.093C63.6907 11.4651 63.076 11.1512 62.2409 11.1512C61.4057 11.1512 60.1183 11.5581 58.3784 12.3721V24.6163H54.7944V8.04651H58.274Z" stroke="black" stroke-width="2" mask="url(#path-1-outside-1_2_339)"/>
<path d="M70.9748 24.6163V21.407H76.1596V11.2558H71.2532V8.04651H79.7436V21.407H84.65V24.6163H70.9748ZM77.7602 5.63953C77.0643 5.63953 76.5075 5.43023 76.09 5.01163C75.6956 4.56977 75.4984 4 75.4984 3.30233C75.4984 2.60465 75.7072 2.04651 76.1248 1.62791C76.5423 1.2093 77.0991 1 77.795 1C78.5141 1 79.0593 1.2093 79.4305 1.62791C79.8248 2.02326 80.022 2.5814 80.022 3.30233C80.022 4.02326 79.8248 4.59302 79.4305 5.01163C79.0361 5.43023 78.4793 5.63953 77.7602 5.63953Z" stroke="black" stroke-width="2" mask="url(#path-1-outside-1_2_339)"/>
<path d="M87.5381 24.6163V1.41861H91.1222V14.7093L93.4188 14.4651C94.7178 12.7907 95.8545 10.9767 96.8288 9.02326L97.316 8.04651H101.213C99.7518 11.1395 98.1279 13.7209 96.3417 15.7907C97.8263 17.907 99.3226 20.407 100.83 23.2907L101.526 24.6163H97.4552C96.3185 22.1512 95.0194 19.7907 93.5579 17.5349L91.1222 17.7791V24.6163H87.5381Z" stroke="black" stroke-width="2" mask="url(#path-1-outside-1_2_339)"/>
<path d="M106.955 24.6163V19.5581H112V24.6163H106.955Z" stroke="black" stroke-width="2" mask="url(#path-1-outside-1_2_339)"/>
</g>
<defs>
<filter id="filter0_d_2_339" x="0.000213623" y="0" width="117" height="34" filterUnits="userSpaceOnUse" color-interpolation-filters="sRGB">
<feFlood flood-opacity="0" result="BackgroundImageFix"/>
<feColorMatrix in="SourceAlpha" type="matrix" values="0 0 0 0 0 0 0 0 0 0 0 0 0 0 0 0 0 0 127 0" result="hardAlpha"/>
<feOffset dy="4"/>
<feGaussianBlur stdDeviation="2"/>
<feComposite in2="hardAlpha" operator="out"/>
<feColorMatrix type="matrix" values="0 0 0 0 0 0 0 0 0 0 0 0 0 0 0 0 0 0 0.25 0"/>
<feBlend mode="normal" in2="BackgroundImageFix" result="effect1_dropShadow_2_339"/>
<feBlend mode="normal" in="SourceGraphic" in2="effect1_dropShadow_2_339" result="shape"/>
</filter>
</defs>
</svg>
